#!OML:ASF E:\emotionWalksFemale\Project 1\Capture day 1\Session 1\Female1.ASF
:FULLY-SPECIFIED
:DEGREES
2337
root 9.08985 15.1756 35.5121 0.160163 13.2587 1.72494
lowerback 5.64417 -0.30913 -0.114157
upperback -1.47969 -0.377951 0.940441
thorax -4.69141 -0.169818 1.0739
lowerneck -8.20012 5.31104 5.28792
upperneck -0.798073 7.34963 -21.9654
head 2.27001 3.23718 -7.25667
rclavicle -1.51698e-014 -1.59028e-015
rhumerus -36.535 -3.24703 -78.959
rradius 31.5982
rwrist 19.2029
rhand -2.07638 -51.1644
rfingers 7.12502
rthumb 23.6001 -79.7361
lclavicle -1.51698e-014 -1.59028e-015
lhumerus -33.0536 5.90058 84.6257
lradius 42.5765
lwrist -9.25534
lhand -6.33644 -31.2836
lfingers 7.12502
lthumb 19.5089 -2.24239
rfemur -23.3115 7.35301 16.9167
rtibia 54.611
rfoot -21.6806 -11.4193
rtoes -22.848
lfemur -10.1257 -15.0358 -30.8951
ltibia 28.7611
lfoot -19.4254 16.1381
ltoes 18.265
2338
root 9.0757 15.1638 35.5812 0.198402 14.0911 1.59542
lowerback 5.69417 -0.310622 0.0288275
upperback -1.52676 -0.366608 0.98238
thorax -4.76967 -0.167249 1.03669
lowerneck -8.10912 5.03163 5.0542
upperneck -1.04895 6.93762 -21.8475
head 2.1091 3.05911 -7.21001
rclavicle -3.45264e-014 -9.54166e-015
rhumerus -36.6521 -3.26441 -78.9718
rradius 31.2703
rwrist 18.4482
rhand -2.59068 -51.4411
rfingers 7.12502
rthumb 23.1068 -80.0756
lclavicle -3.45264e-014 -9.54166e-015
lhumerus -32.8614 5.09392 85.3303
lradius 42.8969
lwrist -9.27411
lhand -6.36769 -31.3232
lfingers 7.12502
lthumb 19.4789 -2.2789
rfemur -23.5348 8.37667 16.5704
rtibia 52.6732
rfoot -22.0736 -10.8902
rtoes -23.2005
lfemur -10.0588 -15.3398 -30.706
ltibia 28.9925
lfoot -19.5874 15.7467
ltoes 17.3366
2339
root 9.06628 15.1863 35.6528 0.241369 14.899 1.3068
lowerback 5.65484 -0.336006 0.284132
upperback -1.56276 -0.376076 1.09022
thorax -4.78573 -0.177532 1.00587
lowerneck -8.08129 5.00272 5.12907
upperneck -1.19972 6.87315 -21.9549
head 2.06024 3.03816 -7.26378
rclavicle 6.30831e-014 1.59028e-015
rhumerus -36.7889 -3.24106 -79.0767
rradius 30.8402
rwrist 17.2302
rhand -5.18595 -50.594
rfingers 7.12502
rthumb 20.6147 -79.5193
lclavicle 6.30831e-014 1.59028e-015
lhumerus -32.7093 4.26169 86.0373
lradius 43.3711
lwrist -9.07851
lhand -5.78335 -30.7649
lfingers 7.12502
lthumb 20.0406 -1.77838
rfemur -23.6141 10.219 16.3309
rtibia 50.5241
rfoot -22.103 -11.2973
rtoes -23.8349
lfemur -9.92213 -15.7054 -30.3294
ltibia 29.0303
lfoot -19.7453 15.3463
ltoes 17.1341
2340
root 9.05617 15.1881 35.7284 0.277685 15.7867 1.33229
lowerback 5.63159 -0.274627 0.307443
upperback -1.58316 -0.290909 1.12013
thorax -4.79508 -0.135463 1.01548
lowerneck -8.00585 4.96957 5.2185
upperneck -1.23458 6.82813 -22.1432
head 2.04374 3.02204 -7.3455
rclavicle -1.07039e-013 -1.51076e-014
rhumerus -37.1238 -3.86439 -78.6154
rradius 30.9873
rwrist 18.4464
rhand -3.74115 -51.0136
rfingers 7.12502
rthumb 22.0025 -79.7821
lclavicle -1.07039e-013 -1.51076e-014
lhumerus -32.5485 2.878 87.0063
lradius 43.6734
lwrist -8.58277
lhand -5.50152 -30.446
lfingers 7.12502
lthumb 20.3115 -1.48815
rfemur -23.6725 11.5106 15.6894
rtibia 48.4168
rfoot -22.5642 -10.7729
rtoes -20.6122
lfemur -9.6128 -16.0338 -30.322
ltibia 28.9608
lfoot -19.7275 14.9399
ltoes 15.7027
2341
root 9.04246 15.1894 35.8038 0.179264 16.8154 1.64326
lowerback 5.85162 -0.388795 -0.109455
upperback -1.54909 -0.477491 1.04352
thorax -4.87881 -0.216643 1.19034
lowerneck -7.94639 5.04763 5.56904
upperneck -1.37307 6.89314 -22.3633
head 2.0274 3.06336 -7.4762
rclavicle -8.97016e-015 -8.74653e-015
rhumerus -37.3034 -3.83801 -78.7921
rradius 30.6661
rwrist 17.6251
rhand -5.23251 -50.5663
rfingers 7.12502
rthumb 20.57 -79.4964
lclavicle -8.97016e-015 -8.74653e-015
lhumerus -32.5565 1.85521 87.5896
lradius 44.0002
lwrist -8.3108
lhand -5.63245 -30.7691
lfingers 7.12502
lthumb 20.1856 -1.79786
rfemur -23.4125 12.9056 14.7629
rtibia 46.2926
rfoot -22.1964 -10.8946
rtoes -23.6296
lfemur -9.01145 -16.2698 -30.6514
ltibia 28.766
lfoot -19.4465 14.6297
ltoes 13.6409
2342
root 9.02626 15.1893 35.875 0.0601346 17.8492 1.6669
lowerback 6.04521 -0.4229 -0.16583
upperback -1.5289 -0.52618 1.05454
thorax -4.96604 -0.238533 1.24029
lowerneck -7.7941 4.94193 5.48757
upperneck -1.549 6.72911 -22.3998
head 1.92562 3.00436 -7.48902
rclavicle 3.41661e-015 -4.77083e-015
rhumerus -37.4515 -4.59176 -78.3308
rradius 30.6316
rwrist 19.4665
rhand -2.66366 -51.6194
rfingers 7.12502
rthumb 23.0367 -80.2626
lclavicle 3.41661e-015 -4.77083e-015
lhumerus -32.562 0.846709 88.3334
lradius 44.339
lwrist -8.27712
lhand -5.61802 -30.9806
lfingers 7.12502
lthumb 20.1995 -2.01081
rfemur -23.2155 14.3925 14.0937
rtibia 44.2589
rfoot -22.7559 -9.94885
rtoes -22.1059
lfemur -8.54547 -16.5348 -30.6311
ltibia 28.6491
lfoot -19.2762 14.2281
ltoes 13.4402
2343
root 9.01223 15.1911 35.9505 0.165729 18.7188 1.53801
lowerback 5.85705 -0.36659 -0.0313923
upperback -1.46804 -0.437858 1.13796
thorax -4.79814 -0.198309 1.23982
lowerneck -8.00081 4.81268 5.08846
upperneck -1.64614 6.56814 -22.2247
head 1.88728 2.92572 -7.36929
rclavicle -2.59476e-014 3.18055e-015
rhumerus -37.4697 -4.85347 -78.0667
rradius 30.5089
rwrist 19.8564
rhand -2.48188 -51.6572
rfingers 7.12502
rthumb 23.2111 -80.2785
lclavicle -2.59476e-014 3.18055e-015
lhumerus -32.2797 -0.196462 89.194
lradius 44.5047
lwrist -8.27876
lhand -5.56355 -31.0828
lfingers 7.12502
lthumb 20.2519 -2.11856
rfemur -23.3102 16.0799 13.475
rtibia 42.2273
rfoot -22.6449 -9.84886
rtoes -23.3839
lfemur -8.37233 -16.8254 -30.3748
ltibia 28.5604
lfoot -19.2968 13.7087
ltoes 13.7824
2344
root 9.00357 15.1914 36.0306 0.115709 19.5561 1.42754
lowerback 5.71339 -0.473065 -0.00448717
upperback -1.55337 -0.577769 1.14262
thorax -4.80279 -0.268076 1.24244
lowerneck -7.17028 4.89036 5.48173
upperneck -2.16665 6.55223 -22.3371
head 1.61151 2.99644 -7.49512
rclavicle 4.0403e-014 2.38542e-015
rhumerus -37.7829 -4.44994 -78.3342
rradius 30.2926
rwrist 19.614
rhand -2.5749 -51.7151
rfingers 7.12502
rthumb 23.1219 -80.3477
lclavicle 4.0403e-014 2.38542e-015
lhumerus -32.5634 -0.931969 89.6005
lradius 44.7658
lwrist -8.31333
lhand -5.68201 -31.1887
lfingers 7.12502
lthumb 20.138 -2.21243
rfemur -23.1932 17.835 12.8542
rtibia 40.234
rfoot -22.3836 -9.86928
rtoes -25.2272
lfemur -8.01791 -17.1354 -30.2237
ltibia 28.5863
lfoot -19.4685 13.3363
ltoes 12.6752
2345
root 8.99417 15.1883 36.1044 -0.112092 20.6315 1.2551
lowerback 5.89419 -0.43887 0.295583
upperback -1.41169 -0.507595 1.17259
thorax -4.76152 -0.241874 1.09877
lowerneck -7.46142 4.85524 5.41904
upperneck -2.18252 6.51406 -22.3382
head 1.64983 2.96518 -7.48135
rclavicle 6.77731e-015 -2.38542e-015
rhumerus -37.7045 -4.66467 -78.1527
rradius 30.0345
rwrist 19.6255
rhand -2.46228 -51.6769
rfingers 7.12502
rthumb 23.2299 -80.2958
lclavicle 6.77731e-015 -2.38542e-015
lhumerus -32.2616 -2.13381 90.4359
lradius 44.9061
lwrist -8.38854
lhand -5.6676 -30.9645
lfingers 7.12502
lthumb 20.1519 -1.98971
rfemur -22.8968 19.3489 12.3258
rtibia 38.348
rfoot -22.3594 -9.36955
rtoes -25.8131
lfemur -7.55057 -17.5767 -30.0495
ltibia 28.6675
lfoot -19.7853 12.8989
ltoes 11.8555
2346
root 8.97622 15.1817 36.1731 -0.0973984 22.044 1.26453
lowerback 6.04235 -0.579494 0.31314
upperback -1.46089 -0.69243 1.15876
thorax -4.89417 -0.33366 1.09547
lowerneck -7.57761 4.86742 5.44053
upperneck -2.06115 6.55556 -22.3019
head 1.70957 2.9741 -7.46742
rclavicle 3.71914e-014 2.38542e-015
rhumerus -37.8385 -4.73543 -78.1038
rradius 29.7845
rwrist 19.8769
rhand -2.69891 -51.4355
rfingers 7.12502
rthumb 23.0029 -80.0829
lclavicle 3.71914e-014 2.38542e-015
lhumerus -32.3103 -3.26015 91.1022
lradius 45.0342
lwrist -8.36619
lhand -5.62489 -31.0032
lfingers 7.12502
lthumb 20.1929 -2.03273
rfemur -22.786 20.6517 11.5285
rtibia 36.6201
rfoot -22.403 -8.86292
rtoes -25.8363
lfemur -7.39011 -18.1484 -29.951
ltibia 28.7597
lfoot -19.8537 12.2895
ltoes 11.1885
2347
root 8.95802 15.1728 36.2482 0.175126 23.1038 1.49768
lowerback 6.00054 -0.56965 0.0613875
upperback -1.4916 -0.700194 1.13936
thorax -4.89956 -0.330351 1.21732
lowerneck -7.97945 4.898 5.30915
upperneck -1.87262 6.64927 -22.2501
head 1.83923 2.98936 -7.41231
rclavicle 1.12935e-014 -1.11319e-014
rhumerus -37.8775 -4.62986 -78.0849
rradius 29.5496
rwrist 19.8638
rhand -2.87968 -51.4006
rfingers 7.12502
rthumb 22.8294 -80.0695
lclavicle 1.12935e-014 -1.11319e-014
lhumerus -32.2312 -4.36207 91.8396
lradius 45.0943
lwrist -8.30504
lhand -5.49746 -31.228
lfingers 7.12502
lthumb 20.3154 -2.27051
rfemur -22.9528 22.2317 10.4109
rtibia 35.0395
rfoot -22.326 -8.55796
rtoes -26.6201
lfemur -7.42389 -18.4372 -29.9936
ltibia 28.8342
lfoot -19.7557 11.6493
ltoes 10.6926
